<?xml version="1.0" encoding="iso-8859-1"?>
<!-- Generator: Adobe Illustrator 19.0.0, SVG Export Plug-In . SVG Version: 6.00 Build 0)  -->
<svg version="1.1" id="Layer_1" xmlns="http://www.w3.org/2000/svg" xmlns:xlink="http://www.w3.org/1999/xlink" x="0px" y="0px"
	 viewBox="0 0 512 512" style="enable-background:new 0 0 512 512;" xml:space="preserve">
<g>
	<g>
		<g>
			<path style="fill:#212121;" d="M506.513,98.709L413.291,5.486C409.78,1.974,405.014,0,400.047,0H385.77c-3.448,0-6.244,2.796-6.244,6.244v151.114
				c0,10.345-8.387,18.732-18.732,18.732H151.196c-10.345,0-18.732-8.387-18.732-18.732V6.244c0-3.448-2.796-6.244-6.244-6.244
				H18.732C8.387,0,0,8.387,0,18.732v474.537C0,503.613,8.387,512,18.732,512h474.537c10.345,0,18.732-8.387,18.732-18.732V111.954
				C512,106.987,510.027,102.221,506.513,98.709z M400.554,410.226c0,10.345-8.387,18.732-18.732,18.732H130.178
				c-10.345,0-18.732-8.387-18.732-18.732V263.094c0-10.345,8.387-18.732,18.732-18.732h251.644
				c10.345,0,18.732,8.387,18.732,18.732V410.226z"/>
			<path style="fill:#f44336;" d="M176.172,126.138h159.647c3.449,0,6.244-2.796,6.244-6.244V6.244c0-3.448-2.796-6.244-6.244-6.244H176.172
				c-3.448,0-6.244,2.796-6.244,6.244v113.65C169.928,123.342,172.724,126.138,176.172,126.138z M275.346,46.27
				c0-10.345,8.387-18.732,18.732-18.732s18.732,8.387,18.732,18.732v33.598c0,10.345-8.387,18.732-18.732,18.732
				s-18.732-8.387-18.732-18.732V46.27z"/>
			<path style="fill:#f44336;" d="M318.413,317.93H193.586c-10.345,0-18.732,8.387-18.732,18.732s8.387,18.732,18.732,18.732h124.828
				c10.345,0,18.73-8.387,18.73-18.732S328.758,317.93,318.413,317.93z"/>
		</g>
	</g>
</g>
<g>
</g>
<g>
</g>
<g>
</g>
<g>
</g>
<g>
</g>
<g>
</g>
<g>
</g>
<g>
</g>
<g>
</g>
<g>
</g>
<g>
</g>
<g>
</g>
<g>
</g>
<g>
</g>
<g>
</g>
</svg>
