<?xml version="1.0" encoding="iso-8859-1"?>
<!-- Generator: Adobe Illustrator 18.0.0, SVG Export Plug-In . SVG Version: 6.00 Build 0)  -->
<!DOCTYPE svg PUBLIC "-//W3C//DTD SVG 1.1//EN" "http://www.w3.org/Graphics/SVG/1.1/DTD/svg11.dtd">
<svg version="1.1" id="Capa_1" xmlns="http://www.w3.org/2000/svg" xmlns:xlink="http://www.w3.org/1999/xlink" x="0px" y="0px"
	 viewBox="0 0 284.515 284.515" style="enable-background:new 0 0 284.515 284.515;" xml:space="preserve">
<g>
	<path d="M282.166,27.382L259.88,2.937C258.174,1.066,255.76,0,253.229,0h-39.936H71.221H9C4.03,0,0,4.029,0,9v266.515
		c0,4.971,4.029,9,9,9h266.514c4.971,0,9-4.029,9-9V33.446C284.514,31.203,283.676,29.04,282.166,27.382z M204.293,18v69.443
		h-35.951V18H204.293z M150.342,18v69.443H80.221V18H150.342z M220.581,266.515H63.934V159.44h156.646V266.515z M266.514,266.515
		h-27.934V150.44c0-4.971-4.029-9-9-9H54.934c-4.971,0-9,4.029-9,9v116.074H18V18h44.221v78.443c0,4.971,4.029,9,9,9h142.072
		c4.971,0,9-4.029,9-9V18h26.962l17.259,18.933V266.515z"/>
</g>
<g>
</g>
<g>
</g>
<g>
</g>
<g>
</g>
<g>
</g>
<g>
</g>
<g>
</g>
<g>
</g>
<g>
</g>
<g>
</g>
<g>
</g>
<g>
</g>
<g>
</g>
<g>
</g>
<g>
</g>
</svg>
